# File produced by Open Asset Import Library (http://www.assimp.sf.net)
# (assimp v3.1.71981620)

mtllib PinFlipper.mtl

# 62 vertex positions
v  4.68455 1 -0.587786
v  4.68455 -1 -0.587786
v  3.40353 -1 -0.809017
v  3.40353 1 -0.809017
v  1.78934 -1 -0.951057
v  1.78934 1 -0.951057
v  0 -1 -1
v  0 1 -1
v  -1.78934 -1 -0.951057
v  -1.78934 1 -0.951057
v  -3.40353 -1 -0.809017
v  -3.40353 1 -0.809017
v  -4.68455 -1 -0.587785
v  -4.68455 1 -0.587785
v  -5.50702 -1 -0.309017
v  -5.50702 1 -0.309017
v  -5.79042 -1 -1.42109e-14
v  -5.79042 1 -1.42109e-14
v  -5.50702 -1 0.309017
v  -5.50702 1 0.309017
v  -4.68455 -1 0.587785
v  -4.68455 1 0.587785
v  -3.40353 -1 0.809017
v  -3.40353 1 0.809017
v  -1.78934 -1 0.951057
v  -1.78934 1 0.951057
v  -1.78814e-07 -1 1
v  -1.78814e-07 1 1
v  1.78934 -1 0.951057
v  1.78934 1 0.951057
v  3.40353 -1 0.809017
v  3.40353 1 0.809017
v  4.68455 -1 0.587785
v  4.68455 1 0.587785
v  4.68455 -1 -0.262866
v  0 -1 -1.42109e-14
v  4.68455 -1 0.262866
v  4.68455 -1 -1.42109e-14
v  4.481 1.28416 -0.251444
v  4.48643 1.28416 -0.562926
v  -0.0217084 1.28416 2.90817e-09
v  3.2624 1.28416 -0.775472
v  1.71702 1.28416 -0.912617
v  0 1.28416 -0.96074
v  -1.72116 1.28416 -0.91482
v  -3.2774 1.28416 -0.779038
v  -4.51484 1.28416 -0.566492
v  -5.31045 1.28416 -0.297987
v  -5.5848 1.28416 1.03654e-10
v  -5.31045 1.28416 0.297987
v  -4.51484 1.28416 0.566491
v  -3.2774 1.28416 0.779038
v  -1.72116 1.28416 0.91482
v  -1.78814e-07 1.28416 0.96074
v  1.71702 1.28416 0.912616
v  3.2624 1.28416 0.775472
v  4.48643 1.28416 0.562926
v  4.481 1.28416 0.251444
v  4.47893 1.28416 1.28125e-10
v  4.68455 1 0.262866
v  4.68455 1 -1.42109e-14
v  4.68455 1 -0.262866

# 114 UV coordinates
vt 0.0902001 0.112599 0
vt 0.0892514 0.0181882 0
vt 0.104066 0.0180546 0
vt 0.104941 0.112735 0
vt 0.264934 0.0457668 0
vt 0.26545 0.142528 0
vt 0.250331 0.142617 0
vt 0.249836 0.0460091 0
vt 0.235193 0.1427 0
vt 0.234767 0.0461277 0
vt 0.220051 0.142761 0
vt 0.2197 0.0461354 0
vt 0.204915 0.142803 0
vt 0.204608 0.0460242 0
vt 0.358787 0.115285 0
vt 0.357611 0.0225646 0
vt 0.372094 0.0223702 0
vt 0.373247 0.114945 0
vt 0.386596 0.0221773 0
vt 0.387677 0.114695 0
vt 0.401107 0.0220035 0
vt 0.402092 0.114511 0
vt 0.41562 0.0218553 0
vt 0.416506 0.114386 0
vt 0.430131 0.0217324 0
vt 0.430931 0.114331 0
vt 0.444632 0.0216269 0
vt 0.445388 0.114376 0
vt 0.365268 0.351858 0
vt 0.364848 0.255096 0
vt 0.379967 0.255023 0
vt 0.380366 0.351636 0
vt 0.395104 0.254955 0
vt 0.395436 0.351527 0
vt 0.410247 0.254908 0
vt 0.410503 0.351529 0
vt 0.425383 0.25488 0
vt 0.425594 0.35166 0
vt 0.0200797 0.113673 0
vt 0.0188382 0.0190425 0
vt 0.0336241 0.0188353 0
vt 0.0348273 0.113229 0
vt 0.264513 0.29653 0
vt 0.264513 0.312738 0
vt 0.224155 0.325851 0
vt 0.253477 0.285494 0
vt 0.23957 0.278408 0
vt 0.224155 0.275966 0
vt 0.20874 0.278408 0
vt 0.194833 0.285494 0
vt 0.183797 0.29653 0
vt 0.176711 0.310436 0
vt 0.17427 0.325851 0
vt 0.176711 0.341267 0
vt 0.183797 0.355173 0
vt 0.194833 0.366209 0
vt 0.20874 0.373295 0
vt 0.224155 0.375737 0
vt 0.23957 0.373295 0
vt 0.253477 0.366209 0
vt 0.264513 0.355173 0
vt 0.264513 0.338965 0
vt 0.264513 0.325851 0
vt 0.094228 0.340123 0
vt 0.0942748 0.355662 0
vt 0.0554367 0.32758 0
vt 0.0837296 0.366265 0
vt 0.070416 0.373106 0
vt 0.0556237 0.375507 0
vt 0.0407957 0.373216 0
vt 0.0273885 0.366442 0
vt 0.0167278 0.35584 0
vt 0.0098736 0.342445 0
vt 0.00751007 0.32758 0
vt 0.0098736 0.312715 0
vt 0.0167278 0.299321 0
vt 0.0273885 0.288718 0
vt 0.0407957 0.281944 0
vt 0.0556237 0.279653 0
vt 0.0704159 0.282054 0
vt 0.0837296 0.288896 0
vt 0.0942747 0.299498 0
vt 0.094228 0.315037 0
vt 0.0942101 0.32758 0
vt 0.0490091 0.0186374 0
vt 0.050121 0.113164 0
vt 0.0614451 0.0184939 0
vt 0.0625103 0.11305 0
vt 0.0738789 0.0183542 0
vt 0.0749004 0.112881 0
vt 0.0747094 0.126432 0
vt 0.089689 0.126064 0
vt 0.103978 0.126442 0
vt 0.264084 0.0317492 0
vt 0.249456 0.0321663 0
vt 0.234697 0.0323202 0
vt 0.219926 0.0323397 0
vt 0.205302 0.0320932 0
vt 0.359668 0.128686 0
vt 0.373743 0.128194 0
vt 0.387962 0.127928 0
vt 0.402244 0.12774 0
vt 0.416526 0.127603 0
vt 0.43074 0.127544 0
vt 0.444769 0.127731 0
vt 0.366055 0.365845 0
vt 0.380731 0.365467 0
vt 0.395506 0.365335 0
vt 0.410263 0.365336 0
vt 0.424837 0.365621 0
vt 0.0213047 0.127424 0
vt 0.0356675 0.126654 0
vt 0.0506322 0.126702 0
vt 0.0626691 0.126582 0

# 103 vertex normals
vn 0.170182 0.0244491 -0.985109
vn 0.17018 0 -0.985413
vn 0.124497 2.95704e-08 -0.99222
vn 0.124514 0.021552 -0.991984
vn 0.0560251 4.89077e-08 -0.998429
vn 0.0560557 0.0180079 -0.998265
vn -1.3254e-09 2.24765e-08 -1
vn 3.79225e-05 0.0166872 -0.999861
vn -0.0560251 6.32788e-09 -0.998429
vn -0.0559773 0.0170276 -0.998287
vn -0.124497 1.69861e-08 -0.99222
vn -0.124428 0.0193738 -0.99204
vn -0.231257 2.81904e-08 -0.972893
vn -0.231121 0.0255874 -0.972588
vn -0.469336 2.6316e-08 -0.88302
vn -0.468807 0.0435323 -0.882227
vn -1 0 -1.33318e-07
vn -0.996161 0.0875437 4.86333e-08
vn -0.469336 -3.44481e-08 0.88302
vn -0.468807 0.0435323 0.882227
vn -0.231256 -5.98612e-08 0.972893
vn -0.231121 0.0255874 0.972588
vn -0.124497 -5.25382e-08 0.99222
vn -0.124428 0.0193737 0.99204
vn -0.0560252 -1.96598e-08 0.998429
vn -0.0559773 0.0170275 0.998287
vn 0 7.15783e-09 1
vn 3.7928e-05 0.0166872 0.999861
vn 0.0560252 2.35104e-08 0.998429
vn 0.0560558 0.018008 0.998265
vn 0.124497 2.82811e-08 0.99222
vn 0.124514 0.021552 0.991984
vn 0.17018 2.15333e-08 0.985413
vn 0.170182 0.0244491 0.985109
vn -9.77536e-10 -1 1.64112e-07
vn 2.22902e-09 -1 9.8202e-08
vn -6.34296e-10 -1 -1.91824e-15
vn -6.05046e-09 -1 0
vn -3.18091e-09 -1 0
vn 1.75556e-15 -1 0
vn 3.18091e-09 -1 0
vn 6.05046e-09 -1 0
vn 8.32775e-09 -1 0
vn 9.78985e-09 -1 0
vn 1.02937e-08 -1 3.85769e-07
vn -9.78985e-09 -1 -3.25293e-14
vn -1.46211e-09 -1 -1.92885e-07
vn 1.40445e-15 -1 3.25293e-14
vn -1.26594e-08 -1 -1.92885e-07
vn 9.65557e-16 -1 0
vn -3.18092e-09 -1 0
vn -6.05046e-09 -1 0
vn -9.77537e-10 -1 -1.64112e-07
vn 2.22901e-09 -1 -9.82018e-08
vn -1.27237e-08 -1 -3.40328e-13
vn 0 1 0
vn 0 1 1.21394e-08
vn 0 1 -2.09415e-07
vn 0 1 -2.09221e-07
vn 0 1 -6.5298e-09
vn 0 1 -1.10881e-07
vn 0 1 1.04239e-07
vn 0 1 2.08354e-07
vn 0 1 1.04371e-07
vn 0 1 1.79453e-08
vn 0 1 -8.662e-08
vn 0 1 2.13365e-07
vn 0 1 3.04983e-07
vn 1 2.65555e-07 3.71777e-06
vn 0.996223 0.086829 -0.000801726
vn 0.99665 0.0817844 -0.000983735
vn 1 2.65555e-07 3.71777e-06
vn 1 0 -5.2519e-06
vn 0.996163 0.0875132 5.1675e-06
vn 1 0 -5.2519e-06
vn 1 0 1.57557e-05
vn 0.996223 0.0868291 0.000806432
vn 1 0 -3.71777e-06
vn 0.99665 0.0817844 0.000983901
vn 1 0 -3.71777e-06
vn 0.8144 0.580279 0.00526576
vn 0.816808 0.576867 0.00696306
vn 0.167208 0.199048 -0.96562
vn 0.122936 0.176117 -0.976662
vn 0.0557458 0.147666 -0.987465
vn 0.000319806 0.136864 -0.99059
vn -0.0551441 0.13942 -0.988697
vn -0.12255 0.158001 -0.979805
vn -0.225774 0.206612 -0.952018
vn -0.441009 0.338188 -0.831348
vn -0.649473 0.471215 -0.596776
vn -0.649472 0.471215 0.596776
vn -0.441009 0.338188 0.831348
vn -0.225774 0.206612 0.952018
vn -0.12255 0.158001 0.979805
vn -0.055144 0.13942 0.988697
vn 0.000319835 0.136865 0.99059
vn 0.0557459 0.147667 0.987465
vn 0.122936 0.176117 0.976662
vn 0.167208 0.199048 0.96562
vn 0.816809 0.576866 -0.00696189
vn 0.814401 0.580279 -0.0052616
vn 0.811571 0.584253 3.83322e-06

# Mesh 'pCylinder1_pCylinder1' with 120 faces
g pCylinder1_pCylinder1
usemtl lambert1
f  1/1/1 2/2/2 3/3/3
f  3/3/3 4/4/4 1/1/1
f  4/5/4 3/6/3 5/7/5
f  5/7/5 6/8/6 4/5/4
f  6/8/6 5/7/5 7/9/7
f  7/9/7 8/10/8 6/8/6
f  8/10/8 7/9/7 9/11/9
f  9/11/9 10/12/10 8/10/8
f  10/12/10 9/11/9 11/13/11
f  11/13/11 12/14/12 10/12/10
f  12/15/12 11/16/11 13/17/13
f  13/17/13 14/18/14 12/15/12
f  14/18/14 13/17/13 15/19/15
f  15/19/15 16/20/16 14/18/14
f  16/20/16 15/19/15 17/21/17
f  17/21/17 18/22/18 16/20/16
f  18/22/18 17/21/17 19/23/19
f  19/23/19 20/24/20 18/22/18
f  20/24/20 19/23/19 21/25/21
f  21/25/21 22/26/22 20/24/20
f  22/26/22 21/25/21 23/27/23
f  23/27/23 24/28/24 22/26/22
f  24/29/24 23/30/23 25/31/25
f  25/31/25 26/32/26 24/29/24
f  26/32/26 25/31/25 27/33/27
f  27/33/27 28/34/28 26/32/26
f  28/34/28 27/33/27 29/35/29
f  29/35/29 30/36/30 28/34/28
f  30/36/30 29/35/29 31/37/31
f  31/37/31 32/38/32 30/36/30
f  32/39/32 31/40/31 33/41/33
f  33/41/33 34/42/34 32/39/32
f  2/43/35 35/44/36 36/45/37
f  3/46/38 2/43/35 36/45/37
f  5/47/39 3/46/38 36/45/37
f  7/48/40 5/47/39 36/45/37
f  9/49/41 7/48/40 36/45/37
f  11/50/42 9/49/41 36/45/37
f  13/51/43 11/50/42 36/45/37
f  15/52/44 13/51/43 36/45/37
f  17/53/45 15/52/44 36/45/37
f  19/54/46 17/53/45 36/45/37
f  21/55/47 19/54/46 36/45/37
f  23/56/48 21/55/47 36/45/37
f  25/57/49 23/56/48 36/45/37
f  27/58/50 25/57/49 36/45/37
f  29/59/51 27/58/50 36/45/37
f  31/60/52 29/59/51 36/45/37
f  33/61/53 31/60/52 36/45/37
f  37/62/54 33/61/53 36/45/37
f  38/63/55 37/62/54 36/45/37
f  35/44/36 38/63/55 36/45/37
f  39/64/56 40/65/56 41/66/57
f  40/65/56 42/67/58 41/66/57
f  42/67/58 43/68/59 41/66/57
f  43/68/59 44/69/60 41/66/57
f  44/69/60 45/70/61 41/66/57
f  45/70/61 46/71/62 41/66/57
f  46/71/62 47/72/63 41/66/57
f  47/72/63 48/73/56 41/66/57
f  48/73/56 49/74/56 41/66/57
f  49/74/56 50/75/56 41/66/57
f  50/75/56 51/76/56 41/66/57
f  51/76/56 52/77/56 41/66/57
f  52/77/56 53/78/64 41/66/57
f  53/78/64 54/79/65 41/66/57
f  54/79/65 55/80/66 41/66/57
f  55/80/66 56/81/56 41/66/57
f  56/81/56 57/82/56 41/66/57
f  57/82/56 58/83/67 41/66/57
f  58/83/67 59/84/68 41/66/57
f  59/84/68 39/64/56 41/66/57
f  37/85/69 60/86/70 34/42/71
f  34/42/71 33/41/72 37/85/69
f  38/87/73 61/88/74 60/86/70
f  60/86/70 37/85/75 38/87/73
f  35/89/76 62/90/77 61/88/74
f  61/88/74 38/87/76 35/89/76
f  2/2/78 1/1/79 62/90/77
f  62/90/77 35/89/80 2/2/78
f  39/91/81 62/90/77 1/1/79
f  1/1/79 40/92/82 39/91/81
f  40/92/83 1/1/1 4/4/4
f  4/4/4 42/93/84 40/92/83
f  42/94/84 4/5/4 6/8/6
f  6/8/6 43/95/85 42/94/84
f  43/95/85 6/8/6 8/10/8
f  8/10/8 44/96/86 43/95/85
f  44/96/86 8/10/8 10/12/10
f  10/12/10 45/97/87 44/96/86
f  45/97/87 10/12/10 12/14/12
f  12/14/12 46/98/88 45/97/87
f  46/99/88 12/15/12 14/18/14
f  14/18/14 47/100/89 46/99/88
f  47/100/89 14/18/14 16/20/16
f  16/20/16 48/101/90 47/100/89
f  48/101/90 16/20/16 18/22/18
f  18/22/18 49/102/91 48/101/90
f  49/102/92 18/22/18 20/24/20
f  20/24/20 50/103/93 49/102/92
f  50/103/93 20/24/20 22/26/22
f  22/26/22 51/104/94 50/103/93
f  51/104/94 22/26/22 24/28/24
f  24/28/24 52/105/95 51/104/94
f  52/106/95 24/29/24 26/32/26
f  26/32/26 53/107/96 52/106/95
f  53/107/96 26/32/26 28/34/28
f  28/34/28 54/108/97 53/107/96
f  54/108/97 28/34/28 30/36/30
f  30/36/30 55/109/98 54/108/97
f  55/109/98 30/36/30 32/38/32
f  32/38/32 56/110/99 55/109/98
f  56/111/99 32/39/32 34/42/34
f  34/42/34 57/112/100 56/111/99
f  57/112/101 34/42/71 60/86/70
f  60/86/70 58/113/102 57/112/101
f  58/113/102 60/86/70 61/88/74
f  61/88/74 59/114/103 58/113/102
f  59/114/103 61/88/74 62/90/77
f  62/90/77 39/91/81 59/114/103

